<?xml version="1.0" encoding="utf-8"?>
<!-- Generator: Adobe Illustrator 25.2.3, SVG Export Plug-In . SVG Version: 6.00 Build 0)  -->
<svg version="1.1" id="Layer_1" xmlns="http://www.w3.org/2000/svg" xmlns:xlink="http://www.w3.org/1999/xlink" x="0px" y="0px"
	 viewBox="0 0 256 256" style="enable-background:new 0 0 256 256;" xml:space="preserve">
<style type="text/css">
	.st0{fill:#FFFFFF;}
	.st1{fill:#405888;}
	.st2{fill:#6878A6;}
	.st3{fill:#2D3447;}
	.st4{fill:#5D78BA;}
	.st5{fill:#E3E4EA;}
</style>
<path class="st0" d="M253.95,158.88v0.01c-0.79,1.1-1.59,2.19-2.4,3.28c-9.11,12.13-19.91,22.93-32.05,32.04
	c-18.22,13.66-39.47,23.52-62.56,28.39h-0.01c-0.21,0.08-0.44,0.18-0.7,0.28c-0.35,0.13-0.72,0.27-1.1,0.41
	c-0.42,0.15-0.86,0.31-1.32,0.47c-0.22,0.09-0.45,0.17-0.69,0.24c-0.16,0.05-0.32,0.11-0.48,0.16c-5.71,1.88-13.54,3.74-22.92,3.96
	c-0.77,0.03-1.55,0.03-2.35,0.03h-0.42c-0.31-0.01-0.61-0.02-0.91-0.02c-0.01,0-0.02,0-0.02-0.01c-12.34-0.27-22.06-3.35-27.91-5.71
	c-0.27-0.16-0.54-0.32-0.82-0.49c-0.01,0.02-0.03,0.02-0.05,0.03c-0.11,0.07-0.23,0.13-0.35,0.2
	c-22.61-4.95-43.44-14.71-61.34-28.13c-8.53-6.4-16.39-13.63-23.47-21.57h-0.01c-3-3.37-5.86-6.86-8.57-10.47
	c-0.81-1.09-1.61-2.18-2.4-3.28v-0.01c-0.29-0.68-0.35-1.29-0.17-1.79c0-0.01,0.01-0.03,0.02-0.04c0.04-0.13,0.11-0.24,0.19-0.33
	c0.02-0.03,0.04-0.07,0.07-0.1c0.35-0.37,0.97-0.58,2.01-0.78h0.01c0,0,0,0,0-0.01c7.65-4.15,14.22-10,19.2-17.08
	c2.4-3.39,4.42-7.05,6.01-10.93c2.72-6.59,4.21-13.8,4.21-21.36v-0.01c0-0.42,0-0.82-0.01-1.23c-0.02-0.03-0.04-0.05-0.06-0.08
	c-0.05-0.08-0.12-0.16-0.18-0.23c-1.6-2.18-3.09-4.46-4.45-6.81c-0.19-0.32-0.37-0.65-0.56-0.97c-0.14-0.26-0.28-0.51-0.42-0.77
	c-0.85-1.56-1.64-3.16-2.38-4.79c-0.15-0.31-0.29-0.63-0.42-0.95c-0.1-0.21-0.19-0.42-0.28-0.64c-0.13-0.3-0.25-0.6-0.38-0.91
	c-0.14-0.33-0.27-0.66-0.4-1c-0.53-1.34-1.02-2.7-1.46-4.08c-0.12-0.34-0.23-0.69-0.33-1.04c-0.11-0.34-0.22-0.69-0.32-1.04
	c-0.1-0.35-0.2-0.7-0.3-1.05c-0.09-0.32-0.18-0.65-0.26-0.97c-0.02-0.08-0.04-0.15-0.06-0.22c-0.08-0.32-0.16-0.62-0.23-0.93
	c-0.18-0.72-0.35-1.44-0.5-2.16c-0.22-1.03-0.43-2.07-0.6-3.12c-0.01-0.08-0.02-0.16-0.04-0.24c-0.05-0.32-0.1-0.65-0.15-0.98
	c-0.06-0.37-0.12-0.73-0.16-1.1c-0.05-0.37-0.1-0.74-0.15-1.11c-0.03-0.29-0.06-0.59-0.1-0.88c0-0.04-0.01-0.08-0.01-0.11
	c-0.03-0.33-0.07-0.67-0.1-1c-0.03-0.33-0.06-0.66-0.09-0.99c-0.02-0.27-0.04-0.54-0.06-0.81c-0.04-0.62-0.08-1.23-0.1-1.85
	c-0.02-0.37-0.04-0.73-0.04-1.11c-0.01-0.28-0.02-0.58-0.03-0.87c0-0.47-0.01-0.94-0.01-1.41c0-11.34,2.55-22.09,7.11-31.7
	l1.02-0.09c1.95-0.16,3.91-0.24,5.9-0.24c9.53,0,18.64,1.83,26.99,5.14c11.6,4.6,21.74,12.08,29.55,21.55
	c1.99,2.43,3.83,4.98,5.51,7.65c10.01-5.18,21.39-8.1,33.44-8.1c2.59,0,5.16,0.13,7.69,0.4c9.13,0.96,17.76,3.6,25.57,7.61
	c4.11-6.62,9.24-12.53,15.18-17.51c12.72-10.68,29.13-17.11,47.04-17.11c1.99,0,3.95,0.08,5.9,0.24l1.02,0.09
	c4.56,9.61,7.11,20.36,7.11,31.7c0,0.47-0.01,0.94-0.01,1.41c-0.01,0.29-0.01,0.59-0.03,0.87c0,0.37-0.02,0.74-0.04,1.11
	c-0.02,0.62-0.06,1.23-0.1,1.84c-0.02,0.27-0.04,0.55-0.06,0.82c-0.03,0.33-0.06,0.66-0.09,0.99c-0.03,0.33-0.07,0.67-0.1,1
	c0,0.03-0.01,0.07-0.01,0.1c-0.04,0.3-0.07,0.6-0.1,0.89c-0.05,0.37-0.09,0.74-0.15,1.11c-0.04,0.37-0.1,0.73-0.16,1.1
	c-0.05,0.33-0.1,0.66-0.15,0.98c-0.02,0.08-0.03,0.16-0.04,0.24c-0.17,1.05-0.38,2.09-0.6,3.12c-0.15,0.72-0.32,1.44-0.5,2.16
	c-0.07,0.31-0.15,0.61-0.23,0.92c-0.02,0.08-0.04,0.15-0.06,0.22c-0.08,0.33-0.17,0.66-0.26,0.98c-0.1,0.35-0.2,0.7-0.3,1.05
	c-0.1,0.35-0.21,0.69-0.32,1.04c-0.1,0.35-0.21,0.7-0.33,1.04c-0.44,1.38-0.93,2.74-1.46,4.08c-0.13,0.34-0.26,0.67-0.4,1
	c-0.13,0.31-0.25,0.61-0.38,0.91c-0.09,0.21-0.18,0.43-0.28,0.64c-0.13,0.32-0.27,0.64-0.42,0.95c-0.74,1.63-1.53,3.22-2.38,4.79
	c-0.14,0.26-0.28,0.51-0.42,0.76c-0.19,0.33-0.37,0.66-0.56,0.98c-0.69,1.2-1.42,2.38-2.18,3.54c-0.73,1.11-1.49,2.2-2.27,3.26
	c-0.06,0.08-0.12,0.16-0.18,0.24c-0.02,0.03-0.04,0.05-0.05,0.07c-0.02,0.41-0.02,0.82-0.02,1.24c0,3.79,0.37,7.48,1.08,11.05
	c0.72,3.57,1.77,7.02,3.13,10.31c0.04,0.1,0.08,0.2,0.13,0.3c1.57,3.77,3.55,7.34,5.88,10.64c0.66,0.94,1.34,1.85,2.06,2.74
	c4.12,5.29,9.84,10.85,17.67,15.02c0,0,0,0,0.01,0c0.83,0.2,1.32,0.42,1.59,0.81h0.01v0.01c0.06,0.09,0.1,0.18,0.14,0.27
	c0.01,0.02,0.02,0.04,0.02,0.05C254.3,157.59,254.24,158.2,253.95,158.88z"/>
<path id="MP_R" class="st1" d="M116.64,141.86c-0.69-1.68-1.61-3.4-2.84-5.09c-0.15-0.2-0.29-0.4-0.44-0.59
	c-0.15-0.19-0.29-0.38-0.45-0.56c-0.12-0.15-0.25-0.31-0.38-0.45c-0.02-0.03-0.05-0.06-0.07-0.09c-0.17-0.2-0.34-0.39-0.52-0.58
	c-0.2-0.21-0.4-0.42-0.6-0.62c-0.09-0.09-0.18-0.17-0.26-0.26c-0.03-0.04-0.07-0.07-0.1-0.1c-0.29-0.27-0.57-0.54-0.87-0.79
	c-3.14-2.75-6.38-4.19-8.52-5.12c-0.27-0.12-0.55-0.23-0.82-0.34c-0.15-0.06-0.29-0.12-0.44-0.17c-0.15-0.06-0.29-0.12-0.44-0.16
	c-0.16-0.06-0.31-0.12-0.47-0.17c-0.2-0.07-0.39-0.14-0.59-0.2c-0.23-0.08-0.46-0.15-0.69-0.22c-0.56-0.17-1.1-0.33-1.65-0.46
	c-0.07-0.02-0.14-0.04-0.21-0.05c-0.02-0.01-0.04-0.01-0.05-0.01c-0.05-0.02-0.11-0.03-0.16-0.04c-0.06-0.01-0.12-0.03-0.18-0.04
	c-0.26-0.06-0.52-0.12-0.79-0.17c-0.22-0.05-0.45-0.1-0.67-0.14c-0.01,0-0.01,0-0.01,0h-0.01c-0.01,0-0.02-0.01-0.02-0.01
	c-0.02-0.01-0.04-0.01-0.05-0.01c-0.07-0.01-0.14-0.03-0.21-0.04c-0.08-0.01-0.16-0.03-0.24-0.04c-0.05-0.01-0.09-0.02-0.14-0.02
	c-0.16-0.02-0.31-0.05-0.47-0.07c-0.21-0.04-0.41-0.07-0.62-0.09c-0.04-0.01-0.07-0.02-0.11-0.02c-0.04-0.01-0.09-0.01-0.14-0.02
	c-0.18-0.02-0.37-0.05-0.55-0.07c-0.08-0.01-0.16-0.02-0.24-0.02c-0.05-0.01-0.11-0.01-0.16-0.02c-0.08-0.01-0.16-0.02-0.24-0.02
	c-0.13-0.01-0.27-0.02-0.4-0.04c-0.13-0.01-0.25-0.02-0.37-0.03c-0.08-0.01-0.16-0.01-0.24-0.02c-0.15-0.01-0.3-0.02-0.45-0.03
	c-0.23-0.02-0.46-0.03-0.68-0.04c0,0-0.01,0-0.01,0c-0.03-0.01-0.06-0.01-0.1-0.01c-0.53-0.02-1.06-0.03-1.58-0.03
	c-0.15,0-0.29,0-0.44,0.01h-0.21c-0.08,0-0.16,0-0.24,0.01c-0.15,0-0.31,0.01-0.46,0.01c-0.18,0.01-0.37,0.01-0.55,0.02
	c-0.04-0.01-0.09,0-0.13,0.01c-0.23,0.01-0.45,0.02-0.67,0.04c-0.22,0.01-0.44,0.03-0.65,0.05c-0.11,0.01-0.21,0.02-0.32,0.02
	c-0.11,0.01-0.21,0.02-0.32,0.03c-0.21,0.02-0.42,0.04-0.63,0.07c-0.18,0.02-0.36,0.04-0.53,0.06c-0.07,0.01-0.13,0.01-0.2,0.02
	c-0.16,0.02-0.32,0.04-0.49,0.07c-0.2,0.02-0.39,0.05-0.59,0.09c-0.21,0.03-0.41,0.06-0.62,0.1c-0.07,0.01-0.15,0.02-0.22,0.04
	c-0.27,0.05-0.54,0.1-0.81,0.15c-0.37,0.07-0.73,0.14-1.07,0.21c-0.17,0.04-0.34,0.07-0.5,0.11c-1.78,0.4-3.22,0.83-4.2,1.13
	c-1.17,0.35-1.83,0.6-2.74,1.07c-0.05,0.03-0.11,0.05-0.16,0.09c-0.05,0.03-0.12,0.06-0.18,0.09c-0.09,0.05-0.17,0.09-0.26,0.14
	c-0.02,0.01-0.05,0.02-0.07,0.04c-0.01,0.01-0.02,0.02-0.04,0.03c-0.46,0.25-1,0.56-1.68,0.93c-0.02,0.01-0.04,0.02-0.07,0.04
	c-0.1,0.05-0.2,0.12-0.31,0.18c-0.1,0.05-0.2,0.11-0.29,0.16c-0.02,0.01-0.03,0.02-0.04,0.02c-0.1,0.05-0.2,0.12-0.31,0.17
	c-0.12,0.07-0.24,0.13-0.37,0.21c-0.01,0.01-0.03,0.02-0.05,0.02c-0.11,0.06-0.22,0.12-0.34,0.19c-0.02,0.01-0.04,0.02-0.05,0.03
	c-0.11,0.06-0.23,0.13-0.35,0.2c-0.15,0.09-0.31,0.17-0.46,0.26c-0.02,0.01-0.05,0.03-0.08,0.04c-0.09,0.05-0.17,0.09-0.26,0.15
	c-0.04,0.02-0.07,0.04-0.1,0.05c-0.15,0.09-0.31,0.16-0.46,0.26c-1.16,0.63-2.54,1.38-4.2,2.27c-0.13,0.07-0.27,0.15-0.41,0.22
	c-0.06,0.04-0.13,0.07-0.2,0.1c-0.1,0.05-0.21,0.11-0.31,0.16c-0.83,0.45-1.73,0.92-2.69,1.43c-12.36,6.5-18.71,9.81-26.84,12.81
	c-4.15,1.53-8.77,3.23-15.25,4.88c-0.66,0.17-1.29,0.32-1.89,0.46c-0.28,0.07-0.56,0.13-0.83,0.2c-0.31,0.07-0.6,0.14-0.89,0.2
	c-0.27,0.06-0.54,0.12-0.79,0.17c-0.07,0.02-0.15,0.04-0.23,0.05c-0.3,0.07-0.59,0.13-0.87,0.18c-0.13,0.02-0.25,0.05-0.37,0.07
	c-0.24,0.05-0.46,0.09-0.68,0.13c-0.05,0.01-0.1,0.02-0.15,0.03c-0.16,0.03-0.33,0.06-0.49,0.09c-0.83,0.16-1.56,0.29-2.21,0.4
	c-0.16,0.02-0.32,0.05-0.47,0.08c-0.37,0.06-0.71,0.12-1.03,0.18c-0.15,0.03-0.29,0.05-0.43,0.08c-0.13,0.02-0.27,0.05-0.39,0.07
	c0,0.01-0.01,0.01-0.01,0.01H3.22c-1.04,0.21-1.66,0.41-2.01,0.79c-0.02,0.03-0.05,0.06-0.07,0.09c-0.08,0.1-0.14,0.21-0.19,0.33
	c-0.01,0.01-0.01,0.03-0.02,0.05c-0.18,0.5-0.12,1.1,0.17,1.79v0.01c0.79,1.1,1.59,2.2,2.4,3.28c2.71,3.61,5.57,7.1,8.57,10.47h0.01
	c7.08,7.94,14.94,15.17,23.47,21.57c17.9,13.42,38.72,23.18,61.34,28.13c0.12-0.07,0.24-0.13,0.35-0.2
	c0.02-0.01,0.04-0.02,0.05-0.03c-0.2-0.12-0.38-0.23-0.58-0.35c-5.94-3.61-8.65-8.77-9.76-10.98c-1.4-2.77-2.48-4.89-2.44-7.93
	c0.06-4.67,2.7-7.99,3.66-9.15c2.64-3.21,4.71-3.33,9.15-6.1c0,0,3.9-2.43,8.16-6.75c1.56-1.57,3.17-3.4,4.65-5.45
	c1.04-1.43,1.85-2.76,2.51-3.98c0.01-0.01,0.01-0.01,0.01-0.01c1.64-2.35,3.18-5.09,4.29-8.21c0.99-2.77,1.64-5.83,1.73-9.16
	C118.73,151.88,118.8,147.09,116.64,141.86z M72.39,156.14c0.22-1.99,0.92-3.83,1.99-5.41v-0.01c2.19-3.26,5.91-5.41,10.13-5.41
	c0.21,0,0.42,0.01,0.63,0.02c0.18,0.01,0.35,0.02,0.52,0.04c0.05,0.01,0.11,0.01,0.16,0.02c0.41,0.04,0.81,0.1,1.2,0.19
	c0.13,0.02,0.26,0.05,0.39,0.09c0.09,0.02,0.18,0.04,0.27,0.07c0.15,0.04,0.3,0.08,0.45,0.13c0.21,0.07,0.43,0.14,0.63,0.22
	c0.23,0.08,0.46,0.17,0.68,0.27c0.21,0.09,0.41,0.18,0.61,0.29c0.1,0.04,0.19,0.09,0.28,0.15c0.1,0.04,0.19,0.1,0.28,0.16
	c0.04,0.02,0.07,0.04,0.1,0.06c0.02,0,0.03,0.01,0.04,0.02l0.01,0.01c0.05,0.03,0.1,0.06,0.15,0.09c0.02,0.01,0.05,0.03,0.07,0.04
	c0.12,0.07,0.23,0.14,0.34,0.22c0.02,0.02,0.05,0.04,0.08,0.05c0.16,0.11,0.33,0.23,0.48,0.35c0.13,0.1,0.26,0.2,0.38,0.3
	c0.31,0.24,0.59,0.51,0.87,0.79c0.16,0.16,0.32,0.32,0.46,0.49c0.16,0.18,0.32,0.37,0.47,0.56c0.07,0.07,0.13,0.15,0.18,0.23
	c0.01,0.02,0.03,0.04,0.05,0.07c0.04,0.05,0.07,0.1,0.11,0.15c0.1,0.13,0.18,0.27,0.27,0.4c0.1,0.13,0.18,0.26,0.26,0.4
	c0.09,0.13,0.16,0.27,0.24,0.41c0.05,0.1,0.11,0.2,0.16,0.29c0.03,0.06,0.07,0.12,0.09,0.18c0.06,0.12,0.12,0.23,0.16,0.34
	c0.07,0.14,0.13,0.29,0.19,0.43l0.13,0.34c0.07,0.2,0.14,0.39,0.21,0.59c0.05,0.18,0.1,0.35,0.15,0.52
	c0.02,0.09,0.05,0.19,0.07,0.29c0.09,0.34,0.16,0.68,0.21,1.03c0.03,0.18,0.05,0.35,0.07,0.53c0.01,0.09,0.02,0.17,0.02,0.26
	c0.02,0.16,0.03,0.32,0.04,0.49c0.01,0.05,0.01,0.1,0.01,0.15v0.06c0.01,0.14,0.01,0.28,0.01,0.42c0,0.15,0,0.31-0.01,0.46
	c-0.24,6.53-5.6,11.74-12.19,11.74c-2.97,0-5.68-1.06-7.8-2.82c-0.15-0.12-0.29-0.24-0.43-0.38c-0.07-0.07-0.15-0.13-0.21-0.2
	c-0.1-0.1-0.21-0.21-0.31-0.31c-0.12-0.12-0.24-0.24-0.35-0.37c-0.01-0.01-0.01-0.01-0.01-0.02c-0.05-0.05-0.11-0.12-0.16-0.18
	c-0.02-0.02-0.04-0.05-0.06-0.07c-0.03-0.03-0.06-0.06-0.09-0.1c-0.04-0.05-0.09-0.1-0.13-0.15c-0.01-0.01-0.02-0.03-0.04-0.05
	c-0.13-0.16-0.25-0.32-0.37-0.49c-0.05-0.07-0.1-0.14-0.14-0.21c-0.2-0.29-0.38-0.58-0.55-0.88c-0.09-0.14-0.16-0.29-0.23-0.43
	c-0.08-0.14-0.15-0.28-0.21-0.43c-0.14-0.29-0.27-0.6-0.38-0.91c-0.05-0.12-0.09-0.24-0.13-0.37c-0.1-0.29-0.18-0.58-0.25-0.88
	c-0.01-0.01-0.01-0.01-0.01-0.02c-0.02-0.09-0.05-0.18-0.07-0.27c-0.04-0.15-0.06-0.29-0.09-0.43c-0.01-0.07-0.02-0.13-0.04-0.2
	c-0.01-0.07-0.02-0.15-0.04-0.23c-0.01-0.08-0.02-0.16-0.03-0.23v-0.02c-0.02-0.1-0.03-0.2-0.04-0.3c-0.02-0.13-0.03-0.27-0.04-0.41
	c-0.01-0.07-0.01-0.13-0.01-0.2c-0.01-0.21-0.02-0.42-0.02-0.63C72.31,157.05,72.34,156.59,72.39,156.14z"/>
<path id="L_Eye" class="st0" d="M96.72,157.51c0,0.15,0,0.31-0.01,0.46c-0.24,6.53-5.6,11.74-12.19,11.74
	c-2.97,0-5.68-1.06-7.8-2.82c-0.15-0.12-0.29-0.25-0.43-0.38c-0.18-0.16-0.35-0.33-0.52-0.51c-0.12-0.12-0.24-0.24-0.35-0.37
	c-0.01-0.01-0.01-0.01-0.01-0.02c-0.04-0.04-0.07-0.08-0.1-0.12c-0.02-0.02-0.04-0.04-0.05-0.06c-0.01-0.01-0.01-0.01-0.01-0.02
	c-0.11-0.12-0.21-0.23-0.3-0.35c-0.13-0.16-0.25-0.32-0.37-0.49c-0.05-0.07-0.1-0.14-0.14-0.21c-0.2-0.29-0.38-0.58-0.55-0.88
	c-0.08-0.14-0.16-0.29-0.23-0.43c-0.07-0.14-0.14-0.29-0.21-0.43c-0.14-0.3-0.27-0.6-0.38-0.91c-0.05-0.12-0.09-0.24-0.13-0.37
	c-0.1-0.29-0.18-0.58-0.25-0.88c-0.01-0.01-0.01-0.01-0.01-0.02c-0.03-0.09-0.05-0.18-0.07-0.27c-0.04-0.14-0.06-0.29-0.09-0.43
	c-0.04-0.22-0.08-0.44-0.1-0.67c-0.02-0.1-0.03-0.21-0.04-0.32c-0.02-0.13-0.03-0.27-0.04-0.41c-0.01-0.07-0.01-0.13-0.01-0.2
	c-0.01-0.21-0.02-0.42-0.02-0.63c0-0.46,0.02-0.93,0.08-1.38c0.22-1.99,0.92-3.83,1.99-5.41v-0.01c2.19-3.26,5.91-5.41,10.13-5.41
	c0.21,0,0.42,0.01,0.63,0.02c0.18,0.01,0.35,0.02,0.52,0.04c0.05,0.01,0.11,0.01,0.16,0.02c0.13,0.01,0.27,0.03,0.4,0.05
	c0.08,0.01,0.16,0.02,0.24,0.04c0.15,0.02,0.31,0.05,0.45,0.08c0.17,0.03,0.34,0.07,0.5,0.12c0.09,0.02,0.18,0.04,0.27,0.07
	c0.15,0.04,0.31,0.08,0.45,0.13c0.21,0.07,0.42,0.14,0.63,0.22c0.1,0.04,0.21,0.07,0.31,0.12c0.02,0.01,0.03,0.01,0.05,0.02
	c0.11,0.04,0.21,0.09,0.32,0.14c0.21,0.09,0.41,0.19,0.61,0.29c0.11,0.05,0.21,0.1,0.32,0.17c0.08,0.04,0.16,0.09,0.24,0.13
	c0.04,0.02,0.07,0.04,0.1,0.06c0.01,0,0.03,0.01,0.04,0.02l0.01,0.01c0.05,0.03,0.1,0.06,0.15,0.09c0.34,0.2,0.67,0.42,0.98,0.66
	c0.13,0.1,0.26,0.2,0.38,0.3c0.31,0.24,0.59,0.51,0.87,0.79c0.59,0.58,1.1,1.21,1.55,1.9c0.09,0.13,0.18,0.26,0.26,0.4
	c0.32,0.52,0.6,1.08,0.84,1.65l0.15,0.37c0.13,0.35,0.25,0.71,0.35,1.09c0.02,0.09,0.05,0.19,0.07,0.29
	c0.05,0.18,0.09,0.37,0.13,0.56c0.03,0.15,0.05,0.31,0.08,0.47c0.03,0.18,0.05,0.35,0.07,0.53c0.01,0.09,0.02,0.17,0.02,0.26
	C96.7,156.76,96.72,157.14,96.72,157.51z"/>
<path id="MP_L" class="st1" d="M254.12,157.09c-0.01-0.02-0.01-0.04-0.02-0.05c-0.04-0.1-0.09-0.19-0.15-0.27v-0.01l-0.01-0.01
	c-0.27-0.38-0.76-0.6-1.59-0.81c-0.01,0-0.01-0.01-0.01-0.01c-1.87-0.45-5.46-0.78-12.26-2.51c-6.49-1.65-11.1-3.36-15.25-4.88
	c-8.14-3-14.48-6.31-26.84-12.81c-13.97-7.35-13.03-7.49-16.47-8.54c-0.99-0.31-2.42-0.73-4.2-1.13c-5.6-1.26-14.61-2.25-23.86,1.74
	c-3.01,1.3-8.19,3.62-12.2,9.15c-1.23,1.69-2.15,3.41-2.84,5.09c-2.17,5.23-2.09,10.02-2.04,11.99c0.09,3.33,0.74,6.39,1.73,9.16
	c1.11,3.11,2.65,5.86,4.29,8.21c0.01,0,0.01,0.01,0.01,0.01c0.66,1.21,1.48,2.54,2.51,3.98c5.55,7.66,12.81,12.2,12.81,12.2
	c4.44,2.78,6.52,2.89,9.15,6.1c0.96,1.17,3.6,4.48,3.66,9.15c0.04,3.04-1.04,5.16-2.44,7.93c-1.12,2.21-3.82,7.38-9.76,10.98
	c-0.46,0.28-0.93,0.56-1.4,0.84c23.09-4.87,44.34-14.73,62.56-28.39c12.14-9.1,22.94-19.9,32.05-32.04c0.81-1.09,1.61-2.18,2.4-3.28
	v-0.01C254.24,158.2,254.3,157.59,254.12,157.09z M170.54,145.5c4.22,0,7.94,2.14,10.13,5.41v0.01c1.07,1.58,1.77,3.42,1.99,5.41
	c0.05,0.45,0.08,0.92,0.08,1.38c0,3.78-1.71,7.15-4.4,9.38c-2.12,1.76-4.83,2.82-7.8,2.82c-6.59,0-11.95-5.21-12.19-11.74
	c-0.01-0.15-0.01-0.31-0.01-0.46C158.34,150.96,163.8,145.5,170.54,145.5z"/>
<path id="RE_P1_1_" class="st2" d="M254.11,157.04c-0.04-0.1-0.09-0.19-0.15-0.27v-0.01l-0.01-0.01c-0.27-0.38-0.76-0.6-1.59-0.81
	c-0.01,0-0.01-0.01-0.01-0.01c-1.87-0.45-5.46-0.78-12.26-2.51c-6.49-1.65-11.1-3.36-15.25-4.88c-8.14-3-14.48-6.31-26.84-12.81
	c-13.97-7.35-13.03-7.49-16.47-8.54c-0.99-0.31-2.42-0.73-4.2-1.13c-5.6-1.26-14.61-2.25-23.86,1.74c-3.01,1.3-8.19,3.62-12.2,9.15
	c-1.23,1.69-2.15,3.41-2.84,5.09c-2.17,5.23-2.09,10.02-2.04,11.99c0.09,3.33,0.74,6.39,1.73,9.16c1.11,3.11,2.65,5.86,4.29,8.21
	c0.01,0,0.01,0.01,0.01,0.01c3.85,5.5,8.29,8.79,9.22,9.47c9.37,6.76,19.28,7.04,29.29,7.32c5.53,0.16,13.2-0.21,23.82-2.9
	c-5.62-4.37-10.56-9.58-14.64-15.44c4.95,0.83,10.04,1.26,15.23,1.26C223.25,171.13,239.98,165.96,254.11,157.04z M178.34,167.09
	c-2.12,1.76-4.83,2.82-7.8,2.82c-6.59,0-11.95-5.21-12.19-11.74c-0.01-0.15-0.01-0.31-0.01-0.46c0-6.74,5.46-12.2,12.2-12.2
	c4.22,0,7.94,2.14,10.13,5.41v0.01c1.07,1.58,1.77,3.42,1.99,5.41c0.05,0.45,0.08,0.92,0.08,1.38
	C182.74,161.48,181.03,164.85,178.34,167.09z"/>
<path id="Muzzle" class="st0" d="M234.69,140.93c-0.72-0.89-1.41-1.81-2.07-2.75c-2.33-3.3-4.31-6.87-5.88-10.64
	c-0.04-0.1-0.09-0.2-0.13-0.29c-4.05-1.63-8.1-3.26-12.14-4.89c-2.22-0.95-5.12-2.2-8.51-3.78v-0.01c-1.9-0.87-3.95-1.85-6.13-2.93
	c-12.4-6.12-13.5-7.8-18.91-9.76c-14.06-5.08-27.33-1.21-29.29-0.61c-0.58,0.18-1.15,0.37-1.71,0.56
	c-12.61,4.42-19.84,13.23-22.53,16.9c-2.88-3.86-10.04-12.25-22.25-16.53c-0.56-0.2-1.13-0.38-1.71-0.56
	c-1.95-0.6-15.23-4.47-29.29,0.61c-5.41,1.96-6.52,3.64-18.91,9.76c-2.18,1.08-4.23,2.06-6.13,2.93v0.01
	c-3.39,1.57-6.29,2.83-8.51,3.78c-4.05,1.63-8.1,3.26-12.14,4.89c-1.6,3.88-3.62,7.55-6.01,10.93c-4.98,7.08-11.55,12.93-19.2,17.08
	c0.12-0.02,0.26-0.05,0.39-0.07c0.13-0.02,0.28-0.05,0.43-0.08c0.32-0.05,0.66-0.12,1.03-0.18c0.15-0.02,0.31-0.05,0.47-0.08
	c0.65-0.11,1.38-0.24,2.21-0.4c0.16-0.03,0.32-0.06,0.49-0.09c0.05-0.01,0.1-0.02,0.15-0.03c0.22-0.04,0.45-0.09,0.68-0.13
	c0.12-0.02,0.24-0.05,0.37-0.07c0.28-0.05,0.57-0.12,0.87-0.18c0.07-0.01,0.15-0.03,0.23-0.05c0.26-0.05,0.52-0.11,0.79-0.17
	c0.29-0.06,0.59-0.13,0.89-0.2c0.27-0.06,0.55-0.13,0.83-0.2c0.6-0.14,1.23-0.29,1.89-0.46c6.49-1.65,11.1-3.36,15.25-4.88
	c8.14-3,14.48-6.31,26.84-12.81c0.96-0.51,1.86-0.98,2.69-1.43c0.11-0.05,0.21-0.11,0.31-0.16c0.07-0.04,0.13-0.07,0.2-0.1
	c0.13-0.07,0.27-0.15,0.41-0.22c1.66-0.88,3.04-1.64,4.2-2.27c0.16-0.09,0.31-0.18,0.46-0.26c0.04-0.02,0.07-0.04,0.1-0.05
	c0.09-0.05,0.17-0.1,0.26-0.15c0.02-0.01,0.05-0.03,0.08-0.04c0.16-0.09,0.31-0.17,0.46-0.26c0.12-0.07,0.24-0.13,0.35-0.2
	c0.02-0.01,0.04-0.02,0.05-0.03c0.12-0.07,0.23-0.13,0.34-0.19c0.02-0.01,0.04-0.02,0.05-0.02c0.13-0.07,0.25-0.14,0.37-0.21
	c0.1-0.05,0.21-0.12,0.31-0.17c0.01-0.01,0.02-0.01,0.04-0.02c0.1-0.05,0.2-0.11,0.29-0.16c0.11-0.06,0.21-0.12,0.31-0.18
	c0.02-0.01,0.05-0.02,0.07-0.04c0.68-0.38,1.21-0.68,1.68-0.93c0.02-0.01,0.03-0.02,0.04-0.03c0.02-0.01,0.05-0.02,0.07-0.04
	c0.09-0.05,0.18-0.09,0.26-0.14c0.06-0.03,0.12-0.06,0.18-0.09c0.05-0.03,0.11-0.05,0.16-0.09c0.91-0.46,1.57-0.71,2.74-1.07
	c0.99-0.31,2.42-0.73,4.2-1.13c0.16-0.04,0.33-0.07,0.5-0.11c0.34-0.07,0.7-0.15,1.07-0.21c0.26-0.05,0.53-0.1,0.81-0.15
	c0.07-0.01,0.15-0.02,0.22-0.04c0.2-0.04,0.41-0.07,0.62-0.1c0.2-0.03,0.39-0.06,0.59-0.09c0.16-0.02,0.32-0.05,0.49-0.07
	c0.07-0.01,0.13-0.02,0.2-0.02c0.17-0.02,0.35-0.04,0.53-0.06c0.21-0.02,0.41-0.05,0.63-0.07c0.1-0.01,0.21-0.02,0.32-0.03
	c0.1-0.01,0.21-0.02,0.32-0.02c0.21-0.02,0.43-0.04,0.65-0.05c0.22-0.02,0.44-0.03,0.67-0.04c0.04-0.01,0.09-0.01,0.13-0.01
	c0.02-0.01,0.04-0.01,0.05-0.01c0.13-0.01,0.26-0.01,0.39-0.02h0.11c0.15-0.01,0.31-0.01,0.46-0.01c0.08-0.01,0.16-0.01,0.24-0.01
	h0.21c0.15-0.01,0.29-0.01,0.44-0.01c0.52,0,1.05,0.01,1.58,0.03c0.03,0,0.06,0,0.1,0.01c0.01,0,0.01,0,0.01,0
	c0.23,0.01,0.45,0.02,0.68,0.04c0.15,0.01,0.3,0.02,0.45,0.03c0.08,0.01,0.16,0.01,0.24,0.02c0.12,0.01,0.25,0.02,0.37,0.03
	c0.13,0.01,0.27,0.02,0.4,0.04c0.08,0.01,0.16,0.01,0.24,0.02c0.05,0.01,0.11,0.01,0.16,0.02c0.08,0.01,0.16,0.02,0.24,0.02
	c0.18,0.02,0.36,0.04,0.55,0.07c0.05,0.01,0.1,0.01,0.14,0.02c0.04,0,0.07,0.01,0.11,0.02c0.21,0.02,0.41,0.05,0.62,0.09
	c0.16,0.02,0.31,0.05,0.47,0.07c0.05,0.01,0.09,0.02,0.14,0.02c0.08,0.01,0.16,0.03,0.24,0.04c0.07,0.01,0.15,0.02,0.21,0.04
	c0.02,0.01,0.04,0.01,0.05,0.01c0.01,0,0.02,0.01,0.02,0.01h0.01c0.01,0,0.01,0,0.01,0c0.22,0.04,0.45,0.09,0.67,0.14
	c0.26,0.05,0.52,0.11,0.79,0.17c0.06,0.01,0.12,0.03,0.18,0.04c0.05,0.01,0.11,0.02,0.16,0.04c0.02,0.01,0.04,0.01,0.05,0.01
	c0.07,0.02,0.14,0.04,0.21,0.05c0.55,0.13,1.1,0.29,1.65,0.46c0.23,0.07,0.46,0.14,0.69,0.22c0.2,0.06,0.39,0.13,0.59,0.2
	c0.16,0.05,0.31,0.11,0.47,0.17c0.15,0.05,0.29,0.11,0.44,0.16c0.15,0.05,0.29,0.11,0.44,0.17c0.27,0.11,0.55,0.22,0.82,0.34
	c2.14,0.93,5.39,2.37,8.52,5.12c0.29,0.26,0.58,0.52,0.87,0.79c0.03,0.03,0.07,0.06,0.1,0.1c0.09,0.09,0.17,0.17,0.26,0.26
	c0.2,0.2,0.4,0.41,0.6,0.62c0.18,0.19,0.35,0.38,0.52,0.58c0.02,0.02,0.05,0.05,0.07,0.09c0.13,0.15,0.26,0.3,0.38,0.45
	c0.15,0.18,0.3,0.37,0.45,0.56c0.15,0.19,0.29,0.38,0.44,0.59c1.23,1.69,2.15,3.41,2.84,5.09c2.17,5.23,2.09,10.02,2.04,11.99
	c-0.09,3.33-0.74,6.39-1.73,9.16c-1.11,3.11-2.65,5.86-4.29,8.21c-0.01,0-0.01,0.01-0.01,0.01c-0.66,1.21-1.48,2.54-2.51,3.98
	c-1.48,2.05-3.09,3.87-4.65,5.45c-4.26,4.32-8.16,6.75-8.16,6.75c-4.44,2.78-6.52,2.89-9.15,6.1c-0.96,1.17-3.6,4.48-3.66,9.15
	c-0.04,3.04,1.04,5.16,2.44,7.93c1.12,2.21,3.82,7.38,9.76,10.98c0.2,0.12,0.38,0.23,0.58,0.35c0.27,0.16,0.55,0.33,0.82,0.49
	c5.85,2.36,15.56,5.44,27.91,5.71c0.01,0,0.01,0,0.02,0c0.3,0.01,0.6,0.01,0.91,0.02c0.14,0.01,0.28,0.01,0.43,0.01
	c13.13,0.07,23.46-3.14,29.57-5.55c0.46-0.27,0.93-0.56,1.4-0.84c5.94-3.61,8.65-8.77,9.76-10.98c1.4-2.77,2.48-4.89,2.44-7.93
	c-0.06-4.67-2.7-7.99-3.66-9.15c-2.64-3.21-4.71-3.33-9.15-6.1c0,0-7.27-4.54-12.81-12.2c-1.04-1.43-1.85-2.76-2.51-3.98
	c-0.01-0.01-0.01-0.01-0.01-0.01c-1.64-2.35-3.18-5.09-4.29-8.21c-0.99-2.77-1.64-5.83-1.73-9.16c-0.05-1.97-0.12-6.76,2.04-11.99
	c0.69-1.68,1.61-3.4,2.84-5.09c4.01-5.53,9.19-7.85,12.2-9.15c9.25-4,18.26-3,23.86-1.74c1.78,0.4,3.22,0.83,4.2,1.13
	c3.44,1.05,2.51,1.2,16.47,8.54c12.36,6.5,18.71,9.81,26.84,12.81c4.15,1.53,8.77,3.23,15.25,4.88c6.8,1.73,10.39,2.07,12.26,2.51
	C244.52,151.78,238.8,146.22,234.69,140.93z M143.69,199.61c2.09,7.29-6.21,17.86-15.86,17.69c-0.25-0.01-0.5-0.02-0.74-0.04
	c-0.07,0-0.13-0.01-0.2-0.02c-0.04,0-0.07,0-0.1-0.01c-0.13-0.01-0.25-0.02-0.37-0.04c-0.04,0-0.07-0.01-0.1-0.01
	c-0.09-0.01-0.17-0.02-0.25-0.04c-0.01,0-0.01,0-0.01,0c-0.15-0.02-0.3-0.05-0.45-0.07c-0.04-0.01-0.08-0.02-0.12-0.02
	c-0.07-0.01-0.13-0.02-0.2-0.04c-2.14-0.45-4.14-1.4-5.91-2.67c-0.16-0.12-0.33-0.24-0.49-0.37c-0.1-0.07-0.2-0.15-0.29-0.23
	c-0.1-0.07-0.19-0.15-0.29-0.24c-1.09-0.91-2.07-1.95-2.9-3.06c-0.05-0.06-0.1-0.13-0.15-0.2c-0.34-0.46-0.66-0.93-0.95-1.42
	c-0.18-0.29-0.34-0.57-0.49-0.87c-0.05-0.09-0.1-0.19-0.15-0.29c-0.1-0.2-0.2-0.4-0.29-0.6c-0.18-0.39-0.34-0.79-0.48-1.18
	c-0.04-0.09-0.07-0.17-0.09-0.26c-0.04-0.12-0.08-0.23-0.11-0.34c-0.04-0.1-0.07-0.2-0.09-0.3c-0.11-0.38-0.2-0.77-0.27-1.15
	c-0.02-0.09-0.03-0.17-0.04-0.26c-0.02-0.11-0.04-0.23-0.05-0.34c-0.02-0.12-0.04-0.23-0.04-0.35c-0.07-0.58-0.09-1.15-0.05-1.71
	c0-0.09,0.01-0.17,0.02-0.26c0.01-0.09,0.01-0.18,0.02-0.26c0.02-0.17,0.04-0.34,0.07-0.51c0.03-0.18,0.07-0.35,0.1-0.52
	c0.01-0.04,0.02-0.09,0.03-0.13c0.05-0.18,0.1-0.36,0.16-0.54c1.91-5.78,10.09-7.92,15.25-7.93
	C133.52,191.06,141.97,193.6,143.69,199.61z"/>
<path id="Nose" class="st3" d="M127.83,217.3c-0.25-0.01-0.5-0.02-0.74-0.04c-0.07,0-0.13-0.01-0.2-0.02c-0.04,0-0.07,0-0.1-0.01
	c-0.13-0.01-0.25-0.02-0.37-0.04c-0.04,0-0.07-0.01-0.1-0.01c-0.09-0.01-0.17-0.02-0.25-0.04c-0.01,0-0.01,0-0.01,0
	c-0.15-0.02-0.3-0.05-0.45-0.07c-0.04-0.01-0.08-0.02-0.12-0.02c-0.07-0.01-0.13-0.02-0.2-0.04c-2.14-0.45-4.14-1.4-5.91-2.67
	c-0.16-0.12-0.33-0.24-0.49-0.37c-0.1-0.07-0.2-0.15-0.29-0.23c-0.1-0.07-0.2-0.16-0.29-0.24c-1.09-0.91-2.07-1.95-2.9-3.06
	c-0.05-0.06-0.1-0.13-0.15-0.2c-0.34-0.46-0.66-0.93-0.95-1.42c-0.18-0.29-0.34-0.57-0.49-0.87c-0.05-0.09-0.1-0.19-0.15-0.29
	c-0.1-0.2-0.2-0.4-0.29-0.6c-0.18-0.39-0.34-0.79-0.48-1.18c-0.04-0.09-0.07-0.17-0.09-0.26c-0.04-0.12-0.08-0.23-0.11-0.34
	c-0.04-0.1-0.07-0.2-0.09-0.3c-0.11-0.38-0.2-0.77-0.27-1.15c-0.02-0.09-0.03-0.17-0.04-0.26c-0.02-0.12-0.04-0.23-0.05-0.34
	c-0.02-0.12-0.03-0.23-0.04-0.35c-0.07-0.58-0.09-1.15-0.05-1.71c0-0.09,0.01-0.17,0.02-0.26c0.01-0.09,0.01-0.18,0.02-0.26
	c0.02-0.17,0.04-0.34,0.07-0.51c0.03-0.18,0.06-0.35,0.1-0.52c0.01-0.04,0.02-0.09,0.03-0.13c0.05-0.18,0.1-0.36,0.16-0.54
	c1.91-5.78,10.09-7.92,15.25-7.93c5.69-0.01,14.14,2.53,15.86,8.54C145.79,206.9,137.48,217.47,127.83,217.3z"/>
<path id="R_Eye" class="st0" d="M182.74,157.71c0,3.78-1.71,7.15-4.4,9.38c-2.12,1.76-4.83,2.82-7.8,2.82
	c-6.59,0-11.95-5.21-12.19-11.74c-0.01-0.15-0.01-0.31-0.01-0.46c0-6.74,5.46-12.2,12.2-12.2c4.22,0,7.94,2.14,10.13,5.41v0.01
	c1.07,1.58,1.77,3.42,1.99,5.41C182.72,156.78,182.74,157.24,182.74,157.71z"/>
<path id="Head_Up" class="st4" d="M237.04,60.44c0,0.47-0.01,0.94-0.01,1.41c-0.01,0.29-0.01,0.59-0.02,0.87
	c-0.01,0.37-0.02,0.74-0.04,1.11c-0.02,0.62-0.06,1.23-0.1,1.84c-0.02,0.27-0.04,0.54-0.06,0.81c-0.02,0.33-0.05,0.66-0.09,0.99
	c-0.03,0.33-0.07,0.67-0.1,0.99c-0.01,0.04-0.01,0.07-0.01,0.11c-0.04,0.29-0.07,0.59-0.1,0.88c-0.05,0.37-0.09,0.74-0.15,1.11
	c-0.04,0.37-0.1,0.73-0.16,1.1c-0.05,0.33-0.1,0.66-0.15,0.98c-0.02,0.08-0.03,0.16-0.04,0.24c-0.17,1.05-0.37,2.09-0.59,3.12
	c-0.16,0.72-0.32,1.44-0.5,2.15c-0.07,0.31-0.15,0.62-0.23,0.93c-0.02,0.07-0.04,0.15-0.06,0.22c-0.09,0.32-0.17,0.65-0.26,0.98
	c-0.1,0.35-0.2,0.7-0.3,1.05c-0.1,0.35-0.21,0.7-0.32,1.04c-0.1,0.35-0.21,0.7-0.33,1.04c-0.45,1.38-0.93,2.74-1.46,4.08
	c-0.13,0.34-0.26,0.67-0.4,1c-0.12,0.31-0.24,0.6-0.38,0.91c-0.09,0.21-0.18,0.43-0.27,0.64c-0.13,0.32-0.27,0.63-0.42,0.95
	c-0.74,1.63-1.53,3.23-2.39,4.8c-0.14,0.26-0.28,0.51-0.42,0.76c-0.18,0.32-0.37,0.65-0.56,0.98c-0.7,1.2-1.42,2.38-2.18,3.54
	c-0.73,1.11-1.48,2.2-2.27,3.26c-0.06,0.08-0.12,0.16-0.18,0.24c-0.02,0.02-0.04,0.05-0.05,0.07c-0.01,0.41-0.02,0.82-0.02,1.23
	v0.01c0,7.57,1.49,14.78,4.21,21.36c-4.05-1.63-8.1-3.26-12.14-4.89c-2.22-0.95-5.12-2.2-8.51-3.78v-0.01
	c-1.9-0.87-3.95-1.85-6.13-2.93c-12.4-6.12-13.5-7.8-18.91-9.76c-14.06-5.08-27.33-1.21-29.29-0.61c-0.58,0.18-1.15,0.37-1.71,0.56
	c-12.61,4.42-19.84,13.23-22.53,16.9c-2.88-3.86-10.04-12.25-22.25-16.53c-0.56-0.2-1.13-0.38-1.71-0.56
	c-1.95-0.6-15.23-4.47-29.29,0.61c-5.41,1.96-6.52,3.64-18.91,9.76c-2.18,1.08-4.23,2.06-6.13,2.93v0.01
	c-3.39,1.57-6.29,2.83-8.51,3.78c-4.05,1.63-8.1,3.26-12.14,4.89c2.71-6.58,4.21-13.79,4.21-21.36v-0.01c0-0.41-0.01-0.82-0.02-1.23
	c-0.02-0.02-0.04-0.05-0.05-0.07c-0.05-0.08-0.12-0.16-0.18-0.24c-1.6-2.18-3.09-4.45-4.45-6.8c-0.19-0.32-0.37-0.65-0.56-0.98
	c-0.14-0.26-0.28-0.51-0.42-0.76c-0.85-1.57-1.65-3.17-2.39-4.8c-0.15-0.31-0.29-0.63-0.42-0.95c-0.1-0.21-0.19-0.43-0.27-0.64
	c-0.13-0.31-0.26-0.6-0.38-0.91c-0.14-0.33-0.27-0.67-0.4-1c-0.53-1.34-1.02-2.7-1.46-4.08c-0.12-0.34-0.23-0.69-0.33-1.04
	c-0.11-0.35-0.21-0.7-0.32-1.04c-0.1-0.35-0.2-0.7-0.3-1.05c-0.09-0.32-0.18-0.65-0.26-0.98c-0.02-0.07-0.04-0.15-0.06-0.22
	c-0.08-0.31-0.16-0.62-0.23-0.93c-0.18-0.71-0.34-1.43-0.5-2.15c-0.22-1.03-0.42-2.07-0.59-3.12c-0.01-0.08-0.02-0.16-0.04-0.24
	c-0.05-0.32-0.1-0.65-0.15-0.98c-0.06-0.37-0.12-0.73-0.16-1.1c-0.05-0.37-0.1-0.74-0.15-1.11c-0.04-0.29-0.07-0.59-0.1-0.88
	c0-0.04-0.01-0.07-0.01-0.11c-0.03-0.33-0.07-0.67-0.1-0.99c-0.03-0.34-0.06-0.67-0.09-0.99c-0.02-0.27-0.04-0.54-0.06-0.81
	c-0.04-0.62-0.08-1.23-0.1-1.84c-0.02-0.37-0.04-0.74-0.04-1.11c-0.01-0.29-0.02-0.58-0.02-0.87c-0.01-0.47-0.01-0.94-0.01-1.41
	c0-11.34,2.55-22.09,7.11-31.7l1.02-0.09c1.95-0.16,3.91-0.24,5.9-0.24c9.53,0,18.63,1.82,26.99,5.14
	c11.6,4.6,21.74,12.08,29.55,21.56c2,2.42,3.84,4.98,5.52,7.65c10.01-5.19,21.38-8.11,33.43-8.11c2.6,0,5.16,0.13,7.69,0.4
	c9.13,0.96,17.76,3.6,25.57,7.61c4.11-6.62,9.24-12.53,15.19-17.51c12.71-10.68,29.13-17.11,47.03-17.11c1.99,0,3.95,0.08,5.9,0.24
	l1.02,0.09C234.49,38.35,237.04,49.1,237.04,60.44z"/>
<path id="LE_P1_1_" class="st2" d="M116.64,141.86c-0.69-1.68-1.61-3.4-2.84-5.09c-0.15-0.2-0.29-0.4-0.44-0.59
	c-0.15-0.19-0.29-0.38-0.45-0.56c-0.12-0.15-0.25-0.31-0.38-0.45c-0.02-0.03-0.05-0.06-0.07-0.09c-0.17-0.2-0.34-0.39-0.52-0.58
	c-0.2-0.21-0.4-0.42-0.6-0.62c-0.09-0.09-0.18-0.17-0.26-0.26c-0.03-0.04-0.07-0.07-0.1-0.1c-0.29-0.27-0.57-0.54-0.87-0.79
	c-3.14-2.75-6.38-4.19-8.52-5.12c-0.27-0.12-0.55-0.23-0.82-0.34c-0.15-0.06-0.29-0.12-0.44-0.17c-0.15-0.06-0.29-0.12-0.44-0.16
	c-0.16-0.06-0.31-0.12-0.47-0.17c-0.2-0.07-0.39-0.14-0.59-0.2c-0.23-0.08-0.46-0.15-0.69-0.22c-0.56-0.17-1.1-0.33-1.65-0.46
	c-0.07-0.02-0.14-0.04-0.21-0.05c-0.02-0.01-0.04-0.01-0.05-0.01c-0.12-0.03-0.23-0.05-0.35-0.09c-0.26-0.06-0.52-0.12-0.79-0.17
	c-0.22-0.04-0.45-0.09-0.67-0.14c-0.01,0-0.01,0-0.01,0h-0.01c-0.01,0-0.02-0.01-0.02-0.01c-0.09-0.02-0.18-0.03-0.27-0.05
	c-0.08-0.01-0.16-0.03-0.24-0.04c-0.05-0.01-0.1-0.02-0.14-0.02c-0.16-0.02-0.31-0.05-0.47-0.07c-0.21-0.04-0.41-0.07-0.62-0.09
	c-0.04-0.01-0.07-0.02-0.11-0.02c-0.04-0.01-0.09-0.01-0.14-0.02c-0.18-0.02-0.37-0.05-0.55-0.07c-0.08-0.01-0.16-0.02-0.24-0.02
	c-0.05-0.01-0.11-0.01-0.16-0.02c-0.08-0.01-0.16-0.02-0.24-0.02c-0.13-0.01-0.27-0.02-0.4-0.04c-0.13-0.01-0.25-0.02-0.37-0.03
	c-0.08-0.01-0.16-0.01-0.24-0.02c-0.15-0.01-0.3-0.02-0.45-0.03c-0.23-0.02-0.46-0.03-0.68-0.04c0,0-0.01,0-0.01,0
	c-0.03-0.01-0.06-0.01-0.1-0.01c-0.53-0.02-1.06-0.03-1.58-0.03c-0.15,0-0.29,0-0.44,0.01h-0.21c-0.08,0-0.16,0-0.24,0.01
	c-0.15,0-0.31,0.01-0.46,0.01H85.9c-0.13,0.01-0.26,0.01-0.39,0.02c-0.01,0-0.03,0-0.05,0.01c-0.04-0.01-0.09,0-0.13,0.01
	c-0.23,0.01-0.45,0.02-0.67,0.04c-0.22,0.01-0.44,0.03-0.65,0.05c-0.11,0.01-0.21,0.02-0.32,0.02c-0.11,0.01-0.21,0.02-0.32,0.03
	c-0.21,0.02-0.42,0.04-0.63,0.07c-0.18,0.02-0.36,0.04-0.53,0.06c-0.07,0.01-0.13,0.01-0.2,0.02c-0.16,0.02-0.32,0.04-0.49,0.07
	c-0.2,0.02-0.39,0.05-0.59,0.09c-0.21,0.03-0.41,0.06-0.62,0.1c-0.07,0.01-0.15,0.02-0.22,0.04c-0.27,0.05-0.54,0.1-0.81,0.15
	c-0.37,0.07-0.73,0.14-1.07,0.21c-0.17,0.04-0.34,0.07-0.5,0.11c-1.78,0.4-3.22,0.83-4.2,1.13c-1.17,0.35-1.83,0.6-2.74,1.07
	c-0.05,0.03-0.11,0.05-0.16,0.09c-0.05,0.03-0.12,0.06-0.18,0.09c-0.09,0.05-0.17,0.09-0.26,0.14c-0.04,0.02-0.08,0.04-0.12,0.07
	c-0.46,0.25-1,0.56-1.68,0.93c-0.02,0.01-0.04,0.02-0.07,0.04c-0.1,0.05-0.2,0.12-0.31,0.18c-0.1,0.05-0.2,0.11-0.29,0.16
	c-0.02,0.01-0.03,0.02-0.04,0.02c-0.1,0.05-0.2,0.12-0.31,0.17c-0.12,0.07-0.24,0.13-0.37,0.21c-0.01,0.01-0.03,0.02-0.05,0.02
	c-0.01,0.01-0.03,0.02-0.04,0.03c-0.1,0.05-0.2,0.1-0.29,0.16c-0.02,0.01-0.04,0.02-0.05,0.03c-0.11,0.06-0.23,0.13-0.35,0.2
	c-0.15,0.09-0.31,0.17-0.46,0.26c-0.11,0.06-0.22,0.13-0.34,0.19c-0.04,0.02-0.07,0.04-0.1,0.05c-0.15,0.09-0.31,0.16-0.46,0.26
	c-1.16,0.63-2.54,1.38-4.2,2.27c-0.13,0.07-0.27,0.15-0.41,0.22c-0.06,0.04-0.13,0.07-0.2,0.1c-0.1,0.05-0.21,0.11-0.31,0.16
	c-0.83,0.45-1.73,0.92-2.69,1.43c-12.36,6.5-18.71,9.81-26.84,12.81c-4.15,1.53-8.77,3.23-15.25,4.88
	c-0.66,0.17-1.29,0.32-1.89,0.46c-0.28,0.07-0.56,0.13-0.83,0.2c-0.31,0.07-0.6,0.14-0.89,0.2c-0.27,0.06-0.54,0.12-0.79,0.17
	c-0.07,0.02-0.15,0.04-0.23,0.05c-0.3,0.07-0.59,0.13-0.87,0.18c-0.13,0.02-0.25,0.05-0.37,0.07c-0.24,0.05-0.46,0.09-0.68,0.13
	c-0.05,0.01-0.1,0.02-0.15,0.03c-0.16,0.03-0.33,0.06-0.49,0.09c-0.83,0.16-1.56,0.29-2.21,0.4c-0.16,0.02-0.32,0.05-0.47,0.08
	c-0.37,0.06-0.71,0.12-1.03,0.18c-0.15,0.03-0.29,0.05-0.43,0.08c-0.13,0.02-0.27,0.05-0.39,0.07c0,0.01-0.01,0.01-0.01,0.01H3.22
	c-1.04,0.21-1.66,0.41-2.01,0.79c-0.02,0.03-0.05,0.06-0.07,0.09c-0.08,0.1-0.14,0.21-0.19,0.33c14.12,8.92,30.85,14.08,48.79,14.08
	c1.29,0,2.59-0.02,3.87-0.08c0.6-0.02,1.19-0.05,1.78-0.1c0.1-0.01,0.21-0.01,0.31-0.02c0.66-0.04,1.31-0.09,1.96-0.15
	c0.11-0.01,0.22-0.02,0.33-0.03c0.4-0.03,0.8-0.07,1.2-0.12c0.1-0.01,0.21-0.02,0.31-0.03c0.02,0,0.03-0.01,0.05-0.01
	c0.45-0.04,0.9-0.1,1.35-0.15c0.15-0.02,0.29-0.04,0.44-0.05c1.21-0.15,2.43-0.33,3.63-0.53c-4.08,5.86-9.02,11.07-14.64,15.44
	c10.62,2.7,18.28,3.06,23.82,2.9c10.01-0.28,19.92-0.56,29.29-7.32c0.93-0.68,5.38-3.97,9.22-9.47c0.01-0.01,0.01-0.01,0.01-0.01
	c1.64-2.35,3.18-5.09,4.29-8.21c0.99-2.77,1.64-5.83,1.73-9.16C118.73,151.88,118.8,147.09,116.64,141.86z M96.7,157.98
	c-0.24,6.53-5.6,11.74-12.19,11.74c-2.97,0-5.68-1.06-7.8-2.82c-0.15-0.12-0.29-0.24-0.43-0.38c-0.07-0.07-0.15-0.13-0.21-0.2
	c-0.1-0.1-0.21-0.21-0.31-0.31c-0.12-0.12-0.24-0.24-0.35-0.37c-0.01-0.01-0.01-0.01-0.01-0.02c-0.05-0.05-0.11-0.12-0.16-0.18
	c-0.02-0.02-0.04-0.05-0.06-0.07c-0.03-0.03-0.06-0.06-0.09-0.1c-0.04-0.05-0.09-0.1-0.13-0.15c-0.01-0.01-0.02-0.03-0.04-0.05
	c-0.13-0.16-0.25-0.32-0.37-0.49c-0.05-0.07-0.1-0.14-0.14-0.21c-0.2-0.29-0.38-0.58-0.55-0.88c-0.08-0.14-0.16-0.29-0.23-0.43
	c-0.07-0.14-0.14-0.29-0.21-0.43c-0.14-0.29-0.27-0.6-0.38-0.91c-0.05-0.12-0.09-0.24-0.13-0.37c-0.1-0.29-0.18-0.58-0.25-0.88
	c-0.01-0.01-0.01-0.01-0.01-0.02c-0.02-0.09-0.05-0.18-0.07-0.27c-0.04-0.15-0.06-0.29-0.09-0.43c-0.01-0.07-0.02-0.13-0.04-0.2
	c-0.02-0.08-0.03-0.15-0.04-0.23c-0.01-0.08-0.02-0.16-0.03-0.23v-0.02c-0.02-0.1-0.03-0.2-0.04-0.3c-0.02-0.13-0.03-0.27-0.04-0.41
	c-0.01-0.07-0.01-0.13-0.01-0.2c-0.01-0.21-0.02-0.42-0.02-0.63c0-0.46,0.02-0.93,0.08-1.38c0.22-1.99,0.92-3.83,1.99-5.41v-0.01
	c2.19-3.26,5.91-5.41,10.13-5.41c0.21,0,0.42,0.01,0.63,0.02c0.18,0.01,0.35,0.02,0.52,0.04c0.05,0.01,0.11,0.01,0.16,0.02
	c0.41,0.04,0.81,0.1,1.2,0.19c0.13,0.02,0.26,0.05,0.39,0.09c0.09,0.02,0.18,0.04,0.27,0.07c0.15,0.04,0.3,0.08,0.45,0.13
	c0.21,0.07,0.42,0.14,0.63,0.22c0.23,0.08,0.46,0.17,0.68,0.27c0.21,0.09,0.41,0.19,0.61,0.29c0.1,0.04,0.19,0.09,0.28,0.15
	c0.1,0.04,0.19,0.1,0.28,0.16c0.04,0.02,0.07,0.04,0.1,0.06c0.02,0,0.03,0.01,0.04,0.02l0.01,0.01c0.05,0.03,0.1,0.06,0.15,0.09
	c0.02,0.01,0.05,0.02,0.07,0.04c0.12,0.07,0.23,0.14,0.34,0.22c0.02,0.02,0.05,0.04,0.08,0.05c0.13,0.09,0.27,0.18,0.4,0.28
	c0.03,0.02,0.05,0.04,0.09,0.07c0.13,0.09,0.26,0.2,0.38,0.3c0.31,0.24,0.59,0.51,0.87,0.79c0.16,0.16,0.32,0.32,0.46,0.49
	c0.16,0.18,0.32,0.37,0.47,0.56c0.07,0.07,0.13,0.15,0.18,0.23c0.01,0.02,0.03,0.04,0.05,0.07c0.04,0.05,0.07,0.1,0.11,0.15
	c0.07,0.1,0.15,0.2,0.21,0.31c0.02,0.03,0.05,0.07,0.06,0.1c0.1,0.13,0.18,0.26,0.26,0.4c0.09,0.13,0.16,0.27,0.24,0.41
	c0.05,0.1,0.11,0.2,0.16,0.29c0.03,0.06,0.07,0.12,0.09,0.18c0.03,0.05,0.05,0.1,0.08,0.15c0.03,0.06,0.06,0.13,0.09,0.19
	c0.07,0.14,0.13,0.29,0.19,0.43c0.05,0.11,0.09,0.23,0.13,0.34c0.07,0.2,0.14,0.39,0.21,0.59c0.05,0.18,0.1,0.35,0.15,0.52
	c0.02,0.09,0.05,0.19,0.07,0.29c0.09,0.34,0.16,0.68,0.21,1.03c0.03,0.18,0.05,0.35,0.07,0.53c0.01,0.09,0.02,0.17,0.02,0.26
	c0.02,0.16,0.03,0.32,0.04,0.49c0.01,0.05,0.01,0.1,0.01,0.15v0.06c0.01,0.14,0.01,0.28,0.01,0.42
	C96.72,157.67,96.72,157.83,96.7,157.98z"/>
<path id="L_Ear_2_" class="st1" d="M25.12,29.11c19.54,10.96,33.77,31.79,33.77,55.8c0,3.08-0.22,6.11-0.64,9.08
	c-5.31-5.94-13.03-9.69-21.63-9.69c-0.12,0-0.23,0-0.35,0.01c0.82,2.39,1.26,4.95,1.26,7.62c0,5.12-1.64,9.87-4.43,13.72
	c-0.16-0.21-0.31-0.41-0.47-0.62c-0.02-0.02-0.04-0.05-0.05-0.07c-0.05-0.08-0.12-0.16-0.18-0.24c-1.6-2.18-3.09-4.45-4.45-6.8
	c-0.19-0.32-0.37-0.65-0.56-0.98c-0.14-0.26-0.28-0.51-0.42-0.76c-0.85-1.57-1.65-3.17-2.39-4.8c-0.15-0.31-0.29-0.63-0.42-0.95
	c-0.1-0.21-0.19-0.43-0.27-0.64c-0.13-0.31-0.26-0.6-0.38-0.91c-0.14-0.33-0.27-0.67-0.4-1c-0.53-1.34-1.02-2.7-1.46-4.08
	c-0.12-0.34-0.23-0.69-0.33-1.04c-0.11-0.35-0.21-0.7-0.32-1.04c-0.1-0.35-0.2-0.7-0.3-1.05c-0.09-0.32-0.18-0.65-0.26-0.98
	c-0.02-0.07-0.04-0.15-0.06-0.22c-0.08-0.31-0.16-0.62-0.23-0.93c-0.18-0.71-0.34-1.43-0.5-2.15c-0.22-1.03-0.42-2.07-0.59-3.12
	c-0.01-0.08-0.02-0.16-0.04-0.24c-0.05-0.32-0.1-0.65-0.15-0.98c-0.06-0.37-0.12-0.73-0.16-1.1c-0.05-0.37-0.1-0.74-0.15-1.11
	c-0.04-0.29-0.07-0.59-0.1-0.88c0-0.04-0.01-0.07-0.01-0.11c-0.03-0.33-0.07-0.67-0.1-0.99c-0.03-0.34-0.06-0.67-0.09-0.99
	c-0.02-0.27-0.04-0.54-0.06-0.81c-0.04-0.62-0.08-1.23-0.1-1.84c-0.02-0.37-0.04-0.74-0.04-1.11c-0.01-0.29-0.02-0.58-0.02-0.87
	c-0.01-0.47-0.01-0.94-0.01-1.41C18.01,49.47,20.56,38.72,25.12,29.11L25.12,29.11z"/>
<path id="R_Ear_2_" class="st1" d="M229.93,28.74c4.56,9.61,7.11,20.36,7.11,31.7c0,0.47-0.01,0.94-0.01,1.41
	c-0.01,0.29-0.01,0.59-0.02,0.87c-0.01,0.37-0.02,0.74-0.04,1.11c-0.02,0.62-0.06,1.23-0.1,1.84c-0.02,0.27-0.04,0.54-0.06,0.81
	c-0.02,0.33-0.05,0.66-0.09,0.99c-0.03,0.33-0.07,0.67-0.1,0.99c-0.01,0.04-0.01,0.07-0.01,0.11c-0.04,0.29-0.07,0.59-0.1,0.88
	c-0.05,0.37-0.09,0.74-0.15,1.11c-0.04,0.37-0.1,0.73-0.16,1.1c-0.05,0.33-0.1,0.66-0.15,0.98c-0.02,0.08-0.03,0.16-0.04,0.24
	c-0.17,1.05-0.37,2.09-0.59,3.12c-0.16,0.72-0.32,1.44-0.5,2.15c-0.07,0.31-0.15,0.62-0.23,0.93c-0.02,0.07-0.04,0.15-0.06,0.22
	c-0.09,0.32-0.17,0.65-0.26,0.98c-0.1,0.35-0.2,0.7-0.3,1.05c-0.1,0.35-0.21,0.7-0.32,1.04c-0.1,0.35-0.21,0.7-0.33,1.04
	c-0.45,1.38-0.93,2.74-1.46,4.08c-0.13,0.34-0.26,0.67-0.4,1c-0.12,0.31-0.24,0.6-0.38,0.91c-0.09,0.21-0.18,0.43-0.27,0.64
	c-0.13,0.32-0.27,0.63-0.42,0.95c-0.74,1.63-1.53,3.23-2.39,4.8c-0.14,0.26-0.28,0.51-0.42,0.76c-0.18,0.32-0.37,0.65-0.56,0.98
	c-0.7,1.2-1.42,2.38-2.18,3.54c-0.73,1.11-1.48,2.2-2.27,3.26c-0.06,0.08-0.12,0.16-0.18,0.24c-0.02,0.02-0.04,0.05-0.05,0.07
	c-0.16,0.21-0.31,0.41-0.47,0.62c-2.79-3.86-4.43-8.6-4.43-13.72c0-2.67,0.45-5.23,1.26-7.62c-0.12-0.01-0.23-0.01-0.35-0.01
	c-8.6,0-16.32,3.75-21.63,9.69c-0.42-2.97-0.64-6-0.64-9.08C196.16,60.53,210.39,39.7,229.93,28.74L229.93,28.74z"/>
<path id="Shadow" class="st5" d="M129.01,228.31c14.09-0.39,24.64-4.39,27.92-5.72c0.27-0.16,0.54-0.32,0.82-0.49
	c0.2-0.12,0.38-0.23,0.58-0.35c5.94-3.61,8.65-8.77,9.76-10.98c1.4-2.77,2.48-4.89,2.44-7.93c-0.06-4.67-2.7-7.99-3.66-9.15
	c-2.64-3.21-4.71-3.33-9.15-6.1c0,0-3.9-2.43-8.16-6.75c0.62,2.72,5.11,23.4-3.41,36.65c-1.3,2.04-2.92,3.9-4.9,5.49
	C137.43,226.04,133.48,227.14,129.01,228.31z"/>
</svg>
